<svg width="124" height="31" fill="none" xmlns="http://www.w3.org/2000/svg">
    <path d="M42.936 1.554c-1.906-3.731-13-.514-24.777 7.19C6.379 16.446-1.627 25.714.28 29.447c1.638 3.208 10.062 1.274 19.877-4.217.438-.273.408-.859-.164-.648-6.05 2.523-11.094 2.679-12.402 0-1.734-3.553 3.763-10.748 12.277-16.071 8.515-5.324 16.825-6.76 18.56-3.207.793 1.627.068 4.016-1.767 6.642-.008.012-.012.025-.024.04-.679.953-.185 1.24.3.777C41.635 8.054 44.08 3.8 42.937 1.554z" fill="#EF373E"/>
    <path d="M25.27 26.122c-1.048-.32-1.905-.753-2.564-1.3l1.191-3.042c.7.504 1.446.887 2.232 1.155.788.266 1.58.401 2.374.401.807 0 1.427-.128 1.859-.379.429-.252.645-.607.645-1.061 0-.414-.195-.751-.585-1.022-.39-.262-1.127-.528-2.203-.785-1.359-.306-2.415-.684-3.17-1.132-.754-.449-1.281-.979-1.587-1.588-.302-.612-.453-1.348-.453-2.217 0-.99.25-1.886.75-2.685.498-.802 1.195-1.424 2.099-1.876.9-.45 1.929-.673 3.089-.673 1.038 0 2.044.164 3.02.49.974.328 1.738.758 2.29 1.292l-1.17 3.042a7.578 7.578 0 0 0-2-1.158 5.9 5.9 0 0 0-2.1-.399c-.686 0-1.239.15-1.656.445-.418.298-.625.7-.625 1.202 0 .274.073.502.221.686.148.181.426.363.826.535.407.177 1.012.362 1.82.562 1.305.32 2.333.705 3.08 1.151.746.451 1.275.979 1.585 1.58.31.601.465 1.32.465 2.159 0 1.585-.546 2.834-1.636 3.737-1.09.907-2.626 1.36-4.605 1.36-1.076 0-2.144-.16-3.191-.48zM47.427 14.787v11.61h-3.596V24.82c-.292.55-.724.981-1.29 1.29a3.783 3.783 0 0 1-1.858.473 3.95 3.95 0 0 1-2.345-.733c-.684-.489-1.22-1.185-1.606-2.091-.381-.905-.576-1.955-.576-3.143 0-1.204.197-2.27.59-3.2.388-.93.925-1.655 1.612-2.173a3.773 3.773 0 0 1 2.325-.775c.67 0 1.29.161 1.847.49.56.328.992.766 1.301 1.313v-1.484h3.596zm-4.12 7.955c.35-.505.524-1.227.524-2.172 0-.96-.173-1.696-.524-2.206-.35-.51-.848-.768-1.495-.768-.633 0-1.13.265-1.494.79-.364.526-.545 1.268-.545 2.23 0 .926.172 1.64.525 2.137.351.494.855.741 1.514.741.647 0 1.146-.25 1.495-.752zM49.819 14.787v-.318c0-1.571.363-2.797 1.08-3.68.722-.884 1.77-1.329 3.141-1.329.783 0 1.417.11 1.9.322v3.177c-.391-.107-.715-.16-.968-.16-.431 0-.79.14-1.073.423-.281.282-.423.71-.423 1.29v.275h1.998v3.04h-1.998v8.57H49.82v-8.57s.053-3.04 0-3.04zM67.856 14.787v11.61H64.26V24.82a3.15 3.15 0 0 1-1.294 1.29 3.767 3.767 0 0 1-1.857.473 3.946 3.946 0 0 1-2.342-.733c-.686-.489-1.22-1.185-1.607-2.091-.383-.905-.574-1.955-.574-3.143 0-1.204.196-2.27.584-3.2.391-.93.931-1.655 1.617-2.173a3.77 3.77 0 0 1 2.322-.775c.674 0 1.29.161 1.848.49a3.5 3.5 0 0 1 1.303 1.313v-1.484h3.596zm-4.122 7.955c.352-.505.526-1.227.526-2.172 0-.96-.174-1.696-.526-2.206-.35-.51-.846-.768-1.494-.768-.632 0-1.131.265-1.494.79-.363.526-.544 1.268-.544 2.23 0 .926.174 1.64.525 2.137.35.494.854.741 1.513.741.648 0 1.145-.25 1.494-.752zM77.64 14.764v3.773c-.577-.306-1.133-.46-1.67-.46-1.528 0-2.293.832-2.293 2.494v5.827h-3.642v-8.275c0-1.247-.054-2.361-.16-3.336h3.42l.222 1.943c.24-.716.63-1.265 1.167-1.648a3.064 3.064 0 0 1 1.807-.57c.498 0 .88.085 1.148.252zM82.374 14.787H78.72v11.61h3.656v-11.61zM85.567 24.98c-.981-1.066-1.472-2.52-1.472-4.364 0-1.22.236-2.295.713-3.222.48-.93 1.15-1.65 2.012-2.16.86-.511 1.858-.766 2.989-.766.751 0 1.493.124 2.223.375.724.252 1.302.591 1.734 1.02l-.93 2.851a4.249 4.249 0 0 0-1.27-.795c-.487-.2-.95-.299-1.396-.299-.754 0-1.332.246-1.735.732-.405.487-.607 1.212-.607 2.172 0 .974.202 1.71.607 2.208.403.493.99.74 1.758.74.443 0 .904-.099 1.383-.298a4.205 4.205 0 0 0 1.26-.798l.93 2.809c-.443.444-1.034.786-1.766 1.03a7.428 7.428 0 0 1-2.353.364c-1.738 0-3.096-.532-4.08-1.599zM97.141 25.848c-.849-.486-1.503-1.188-1.96-2.103-.46-.915-.687-1.989-.687-3.222 0-1.237.228-2.308.687-3.225.457-.912 1.111-1.612 1.96-2.1.847-.489 1.843-.732 2.99-.732 1.13 0 2.115.248 2.956.744.843.494 1.492 1.195 1.948 2.103.459.904.687 1.973.687 3.21 0 1.233-.228 2.306-.687 3.211-.456.907-1.105 1.608-1.948 2.101-.841.497-1.826.746-2.956.746-1.147 0-2.143-.244-2.99-.733zm4.97-5.325c0-1.006-.168-1.746-.499-2.228-.327-.48-.824-.718-1.481-.718-.676 0-1.18.239-1.517.718-.336.482-.507 1.222-.507 2.228 0 1.02.17 1.772.507 2.253.337.479.84.72 1.517.72 1.319 0 1.98-.992 1.98-2.973zM123.142 15.7c.573.823.858 2.081.858 3.77v6.927h-3.654v-6.81c0-.688-.089-1.182-.273-1.485-.184-.307-.49-.458-.919-.458-.513 0-.909.215-1.193.64-.283.427-.424 1.024-.424 1.806v6.306h-3.654v-6.81c0-.687-.097-1.181-.283-1.484-.191-.307-.492-.458-.909-.458-.511 0-.907.215-1.181.64-.277.427-.414 1.024-.414 1.806v6.306h-3.66v-8.274c0-1.247-.048-2.361-.159-3.336h3.434l.182 1.625c.31-.627.745-1.108 1.302-1.443.56-.332 1.203-.5 1.928-.5 1.469 0 2.466.702 2.99 2.1a4.32 4.32 0 0 1 1.444-1.53c.599-.38 1.25-.57 1.949-.57 1.183 0 2.063.41 2.636 1.232zM82.374 9.094H78.72v3.724h3.656V9.094z" fill="#2CB34A"/>
</svg>
