<svg width="120" height="31" viewBox="0 0 120 31" fill="none" xmlns="http://www.w3.org/2000/svg">
<g id="Group 427319058">
<path id="Path 8014" d="M24.5787 25.3612C23.7005 25.095 22.8611 24.6909 22.0859 24.1612L23.2314 21.3202C23.9167 21.769 24.6388 22.1447 25.388 22.4422C26.1339 22.6761 26.904 22.8018 27.679 22.8162C28.3026 22.8369 28.923 22.7094 29.4985 22.4422C29.6722 22.3605 29.8214 22.2258 29.9288 22.0537C30.0362 21.8817 30.0973 21.6793 30.1051 21.4702C30.0894 21.2726 30.0323 21.0819 29.9385 20.9131C29.8446 20.7443 29.7165 20.6023 29.5643 20.4982C28.8804 20.1385 28.1545 19.8867 27.4077 19.7502C26.3642 19.536 25.3469 19.1866 24.3769 18.7092C23.7478 18.3732 23.2123 17.855 22.8267 17.2092C22.5438 16.5571 22.4051 15.8396 22.4221 15.1162C22.4212 14.2032 22.6823 13.3136 23.1674 12.5762C23.6842 11.788 24.3824 11.1684 25.1889 10.7822C26.1218 10.3229 27.1334 10.0933 28.1539 10.1092C29.134 10.1063 30.1095 10.2575 31.0513 10.5582C31.852 10.8049 32.6054 11.2116 33.2747 11.7582L32.1256 14.5952C31.5106 14.1483 30.8559 13.7726 30.1717 13.4742C29.5179 13.241 28.8369 13.115 28.1503 13.1002C27.5832 13.0694 27.0206 13.2256 26.5335 13.5492C26.3532 13.6613 26.2025 13.8237 26.0961 14.0203C25.9898 14.2169 25.9314 14.4409 25.927 14.6702C25.9319 14.9119 26.0023 15.1464 26.1288 15.3432C26.3603 15.583 26.6375 15.7618 26.9399 15.8662C27.5088 16.098 28.0951 16.273 28.6919 16.3892C29.7242 16.6005 30.7231 16.9782 31.657 17.5102C32.286 17.8461 32.8216 18.3644 33.2071 19.0102C33.5518 19.6113 33.7168 20.3179 33.6784 21.0292C33.6997 21.7111 33.5694 22.3883 33.2991 23.0011C33.0288 23.6139 32.6267 24.1435 32.1283 24.5432C30.7945 25.4543 29.2433 25.8957 27.679 25.8092C26.6325 25.812 25.5903 25.661 24.5796 25.3602" fill="white"/>
<path id="Path 8015" d="M45.9379 14.6705V25.6615H42.5015V24.1615C42.2169 24.6894 41.7936 25.1081 41.2884 25.3615C40.7221 25.6676 40.0988 25.8214 39.4689 25.8105C38.6636 25.8281 37.8699 25.5949 37.178 25.1375C36.5115 24.6579 35.9756 23.9858 35.6278 23.1935C35.272 22.2459 35.0889 21.2295 35.0889 20.203C35.0889 19.1764 35.272 18.1601 35.6278 17.2125C35.9551 16.3855 36.4942 15.6834 37.178 15.1935C37.7592 14.7626 38.4321 14.5082 39.1296 14.4555C39.827 14.4029 40.5247 14.5539 41.1533 14.8935C41.6692 15.1929 42.1097 15.6304 42.4348 16.1665V14.7465L45.9388 14.6715L45.9379 14.6705ZM41.9626 22.2215C42.3402 21.634 42.5305 20.9235 42.5033 20.2025C42.5295 19.4586 42.3399 18.725 41.9626 18.1095C41.7933 17.8739 41.5779 17.6842 41.3328 17.5546C41.0876 17.425 40.8192 17.359 40.5476 17.3615C40.2739 17.3423 40.0003 17.401 39.7528 17.5319C39.5052 17.6628 39.2918 17.8616 39.1327 18.1095C38.7553 18.725 38.5658 19.4586 38.592 20.2025C38.5569 20.562 38.5867 20.9256 38.6795 21.2723C38.7723 21.6189 38.9264 21.9416 39.1327 22.2215C39.3157 22.4537 39.545 22.6354 39.8023 22.7523C40.0597 22.8691 40.338 22.9178 40.6152 22.8945C40.8718 22.9031 41.1267 22.847 41.3609 22.7304C41.5951 22.6139 41.8023 22.4398 41.9671 22.2215" fill="white"/>
<path id="Path 8016" d="M48.2291 14.6698V14.3698C48.169 13.101 48.5283 11.8515 49.2394 10.8558C49.6337 10.4158 50.1084 10.0747 50.6315 9.85561C51.1547 9.63652 51.7141 9.54451 52.272 9.58578C52.8889 9.55279 53.5057 9.65472 54.0871 9.88578V12.8758C53.7983 12.8164 53.5047 12.7913 53.2111 12.8008C52.8461 12.7983 52.4906 12.9298 52.1999 13.1748C52.0606 13.3323 51.9526 13.5205 51.8829 13.7272C51.8132 13.9339 51.7834 14.1545 51.7953 14.3748V14.5988H53.7492V17.4358H51.8007V25.5108H48.2967V17.5108C48.2291 17.5108 48.2967 14.6698 48.2291 14.6698Z" fill="white"/>
<path id="Path 8017" d="M65.6117 14.6705V25.6615H62.1753V24.1615C61.8907 24.6894 61.4675 25.1081 60.9623 25.3615C60.3959 25.6676 59.7726 25.8214 59.1427 25.8105C58.3374 25.8281 57.5437 25.5949 56.8518 25.1375C56.1854 24.6579 55.6494 23.9858 55.3017 23.1935C54.9459 22.2459 54.7627 21.2295 54.7627 20.203C54.7627 19.1764 54.9459 18.1601 55.3017 17.2125C55.629 16.3855 56.168 15.6834 56.8518 15.1935C57.4331 14.7626 58.1059 14.5082 58.8034 14.4555C59.5009 14.4029 60.1986 14.5539 60.8271 14.8935C61.3431 15.1929 61.7836 15.6304 62.1086 16.1665V14.7465L65.6126 14.6715L65.6117 14.6705ZM61.6364 22.2215C62.0141 21.634 62.2044 20.9235 62.1771 20.2025C62.2033 19.4586 62.0138 18.725 61.6364 18.1095C61.4671 17.8739 61.2517 17.6842 61.0066 17.5546C60.7615 17.425 60.493 17.359 60.2215 17.3615C59.9478 17.3423 59.6742 17.401 59.4266 17.5319C59.179 17.6628 58.9656 17.8616 58.8065 18.1095C58.4292 18.725 58.2396 19.4586 58.2658 20.2025C58.2307 20.562 58.2605 20.9256 58.3533 21.2723C58.4462 21.6189 58.6002 21.9416 58.8065 22.2215C58.9896 22.4537 59.2188 22.6354 59.4762 22.7523C59.7335 22.8691 60.0118 22.9178 60.2891 22.8945C60.5456 22.9031 60.8006 22.847 61.0347 22.7304C61.2689 22.6139 61.4761 22.4398 61.6409 22.2215" fill="white"/>
<path id="Path 8018" d="M75.1149 14.6705V18.2595C74.6152 17.9711 74.0614 17.8173 73.4981 17.8105C73.2016 17.7604 72.8987 17.7871 72.613 17.8885C72.3274 17.9899 72.0667 18.1632 71.8514 18.3949C71.6361 18.6266 71.4721 18.9105 71.3721 19.2242C71.272 19.5379 71.2387 19.8731 71.2748 20.2035V25.7365H67.77V17.8105C67.77 16.6105 67.7024 15.5675 67.6348 14.6705H70.9369L71.1387 16.5395C71.3408 15.8821 71.7468 15.3257 72.2842 14.9695C72.8084 14.6059 73.4183 14.4238 74.0362 14.4465C74.4088 14.3962 74.7864 14.4744 75.1177 14.6705" fill="white"/>
<path id="Path 8019" d="M75.9902 9.28711H79.6961V12.8011H75.9902V9.28711ZM76.1254 14.6701H79.6294V25.6611H76.1254V14.6701Z" fill="white"/>
<path id="Path 8020" d="M82.7268 24.3151C82.2443 23.7781 81.869 23.1345 81.6253 22.426C81.3815 21.7176 81.2747 20.9603 81.3119 20.2031C81.2866 19.133 81.5194 18.0749 81.986 17.1381C82.4258 16.2504 83.1107 15.5428 83.9399 15.1191C84.8413 14.6268 85.8326 14.3709 86.8373 14.3711C87.5682 14.3856 88.2939 14.5115 88.994 14.7451C89.6176 14.9144 90.1953 15.2478 90.6784 15.7171L89.8024 18.4091C89.4466 18.0732 89.0342 17.819 88.5893 17.6611C88.1617 17.4604 87.7017 17.3584 87.2375 17.3611C86.9301 17.3389 86.6219 17.3872 86.3321 17.503C86.0423 17.6188 85.7771 17.7996 85.5531 18.0341C85.3358 18.3088 85.1702 18.6289 85.0661 18.9756C84.9619 19.3224 84.9213 19.6887 84.9465 20.0531C84.8968 20.8116 85.1142 21.5619 85.5531 22.1461C85.7771 22.3806 86.0423 22.5614 86.3321 22.6772C86.6219 22.793 86.9301 22.8413 87.2375 22.8191C87.7017 22.8218 88.1617 22.7197 88.5893 22.5191C89.0342 22.3612 89.4466 22.107 89.8024 21.7711L90.6784 24.4631C90.1953 24.9323 89.6176 25.2657 88.994 25.4351C88.2491 25.6743 87.4784 25.8001 86.703 25.8091C85.2522 25.9049 83.8252 25.3664 82.7277 24.3091" fill="white"/>
<path id="Path 8021" d="M93.8458 25.1369C93.049 24.6887 92.3919 23.9853 91.9596 23.1179C91.4852 22.1844 91.2519 21.1239 91.2854 20.0529C91.2519 18.9819 91.4852 17.9214 91.9596 16.9879C92.4113 16.1372 93.0634 15.4392 93.8458 14.9689C94.7503 14.4944 95.7431 14.2638 96.7433 14.2959C97.721 14.2716 98.6903 14.5021 99.5731 14.9689C100.37 15.4171 101.027 16.1205 101.459 16.9879C101.942 17.9179 102.175 18.981 102.134 20.0529C102.167 21.1239 101.934 22.1845 101.459 23.1179C100.989 23.9517 100.341 24.6449 99.5731 25.1369C98.6903 25.6038 97.721 25.8343 96.7433 25.8099C95.7445 25.8259 94.755 25.5961 93.8458 25.1369ZM98.6295 20.0529C98.6955 19.3158 98.5289 18.576 98.1582 17.9599C97.9847 17.7348 97.7668 17.5571 97.5214 17.4404C97.2761 17.3237 97.0098 17.2712 96.7433 17.2869C96.466 17.2636 96.1877 17.3123 95.9304 17.4291C95.673 17.546 95.4438 17.7277 95.2607 17.9599C94.89 18.576 94.7234 19.3158 94.7894 20.0529C94.7234 20.7901 94.89 21.5298 95.2607 22.1459C95.4438 22.3782 95.673 22.5599 95.9304 22.6767C96.1877 22.7935 96.466 22.8422 96.7433 22.8189C98.0239 22.8939 98.6295 21.9969 98.6295 20.0529Z" fill="white"/>
<path id="Path 8022" d="M118.984 15.5669C119.603 16.6314 119.888 17.893 119.795 19.1559V25.7359H116.291V19.3059C116.337 18.8124 116.243 18.3153 116.02 17.8849C115.92 17.7342 115.788 17.614 115.634 17.5355C115.481 17.4571 115.313 17.4228 115.144 17.4359C114.925 17.4325 114.708 17.4848 114.509 17.5888C114.311 17.6928 114.136 17.8457 113.999 18.0359C113.698 18.5445 113.556 19.1488 113.594 19.7559V25.7359H110.09V19.3059C110.137 18.8124 110.042 18.3153 109.82 17.8849C109.72 17.7342 109.587 17.614 109.434 17.5355C109.281 17.4571 109.112 17.4228 108.944 17.4359C108.725 17.4325 108.507 17.4848 108.309 17.5888C108.11 17.6928 107.936 17.8457 107.799 18.0359C107.497 18.5445 107.355 19.1488 107.394 19.7559V25.7359H103.888V17.8109C103.888 16.6109 103.821 15.5679 103.753 14.6709H107.055L107.257 16.2409C107.542 15.6505 107.991 15.1783 108.538 14.8949C109.125 14.5813 109.771 14.4273 110.422 14.4459C111.036 14.3966 111.648 14.5658 112.169 14.9289C112.69 15.292 113.093 15.8301 113.319 16.4649C113.653 15.8452 114.146 15.3503 114.734 15.0439C115.311 14.6879 115.961 14.5075 116.621 14.5209C117.062 14.4417 117.515 14.4973 117.931 14.6817C118.346 14.8662 118.709 15.1725 118.979 15.5679" fill="white"/>
<path id="Path 8023" d="M19.5913 23.9403C18.1659 24.5176 16.7013 24.9677 15.2113 25.2863C13.4651 25.7222 11.6616 25.7985 9.89049 25.5113C9.35141 25.4487 8.83685 25.2289 8.39904 24.8743C7.96123 24.5197 7.61576 24.0429 7.3977 23.4923C6.92636 22.1463 7.46529 20.2023 8.94781 17.9593C10.8323 15.0403 14.1335 12.0533 18.1097 9.44029C18.1454 9.42036 18.1764 9.39137 18.2001 9.35567C18.2238 9.31996 18.2396 9.27856 18.2462 9.23482C18.2528 9.19107 18.2499 9.14622 18.238 9.10391C18.226 9.06159 18.2052 9.02301 18.1773 8.99129C18.1097 8.84129 17.9069 8.76729 17.8402 8.91629C14.5267 11.0043 11.3514 13.3515 8.33858 15.9403C2.61128 20.8753 -0.421349 25.3613 0.0472894 27.9773C0.182473 28.7253 0.653815 29.6223 2.20393 29.9963C2.93432 30.1677 3.68353 30.2182 4.42725 30.1463C8.1331 29.9223 13.7261 27.8283 19.7905 24.4643C19.8489 24.4317 19.894 24.3756 19.9165 24.3074C19.9389 24.2392 19.9371 24.1641 19.9113 24.0974C19.8856 24.0307 19.8378 23.9773 19.7779 23.9483C19.7179 23.9193 19.6502 23.9168 19.5886 23.9413" fill="#E4002B"/>
<path id="Path 8024" d="M41.6924 2.93096C41.5499 2.41147 41.2666 1.95334 40.881 1.61891C40.4954 1.28448 40.0263 1.09001 39.5376 1.06196C38.8105 0.861966 38.0601 0.786428 37.3125 0.837963C33.2696 1.06196 27.1376 3.45496 20.4667 7.33796C20.4083 7.37054 20.3632 7.42664 20.3407 7.49483C20.3183 7.56301 20.3201 7.63813 20.3459 7.70486C20.3716 7.7716 20.4194 7.82491 20.4794 7.85391C20.5393 7.88292 20.607 7.88544 20.6686 7.86096C23.5005 6.23221 26.5138 5.02545 29.6304 4.27196C31.3775 3.83527 33.1821 3.75933 34.954 4.04796C35.4931 4.11059 36.0076 4.33035 36.4454 4.68494C36.8832 5.03954 37.2287 5.51634 37.4468 6.06696C37.9181 7.41296 37.3792 9.35696 35.8966 11.6C35.6923 11.918 35.4669 12.2188 35.2225 12.5C35.1889 12.5552 35.1709 12.6203 35.1709 12.687C35.1709 12.7536 35.1889 12.8187 35.2225 12.874C35.2901 12.949 35.2901 12.949 35.3577 12.949C35.453 12.9602 35.5488 12.9336 35.6281 12.874C40.008 8.76196 42.1638 5.09796 41.6924 2.92996" fill="#E4002B"/>
</g>
</svg>
